<?xml version="1.0" encoding="UTF-8"?>
<svg xmlns="http://www.w3.org/2000/svg" viewBox="0 0 16 16">
    <path d="m7.47,11.22l-.97-2.49h-3.15l-.96,2.49h-.92l3.07-7.88h.82l3.05,7.88h-.95Zm-1.24-3.3l-.92-2.48c-.02-.06-.06-.17-.11-.32-.05-.15-.1-.3-.15-.46-.05-.16-.09-.29-.12-.38-.04.15-.07.29-.12.44-.04.14-.08.28-.12.4-.04.12-.07.23-.1.31l-.93,2.48h2.57Z"/>
    <path d="m11.56,5.23c.7,0,1.22.16,1.56.47.34.31.51.82.51,1.51v4h-.65l-.17-.87h-.04c-.17.21-.34.39-.52.54-.18.14-.39.25-.62.33-.24.07-.52.11-.86.11-.36,0-.68-.06-.95-.19-.28-.12-.5-.31-.66-.57-.16-.25-.24-.58-.24-.97,0-.59.23-1.04.7-1.35.46-.31,1.17-.49,2.13-.52l1.01-.04v-.36c0-.51-.11-.87-.33-1.07-.22-.2-.53-.31-.92-.31-.31,0-.6.04-.88.13-.28.09-.54.2-.79.32l-.27-.68c.27-.14.57-.25.91-.35s.71-.14,1.08-.14Zm1.19,3.08l-.9.04c-.73.03-1.25.15-1.55.36-.3.21-.45.51-.45.9,0,.34.1.59.31.75s.47.24.81.24c.52,0,.95-.14,1.28-.43s.5-.73.5-1.31v-.54Z"/>
</svg>
