<?xml version="1.0" encoding="UTF-8"?>
<svg xmlns="http://www.w3.org/2000/svg" viewBox="0 0 16 16">
    <path d="m4.72,5.23c.7,0,1.22.16,1.56.47.34.31.51.82.51,1.51v4h-.65l-.17-.87h-.04c-.17.21-.34.39-.52.54-.18.14-.39.25-.62.33-.24.07-.52.11-.86.11-.36,0-.68-.06-.95-.19-.28-.12-.5-.31-.66-.57-.16-.25-.24-.58-.24-.97,0-.59.23-1.04.7-1.35.46-.31,1.17-.49,2.13-.52l1.01-.04v-.36c0-.51-.11-.86-.33-1.07-.22-.2-.53-.31-.92-.31-.31,0-.6.04-.88.13s-.54.2-.79.32l-.27-.68c.27-.14.57-.25.91-.35s.71-.15,1.08-.15Zm1.19,3.08l-.9.04c-.73.03-1.25.15-1.55.36s-.45.51-.45.9c0,.34.1.59.31.75s.47.24.81.24c.52,0,.95-.14,1.28-.43s.5-.73.5-1.31v-.54Z"/>
    <path d="m9.52,2.86v2.09c0,.24,0,.47-.02.7s-.02.4-.03.53h.05c.16-.27.39-.49.7-.67.3-.18.69-.27,1.17-.27.74,0,1.33.26,1.76.77.44.51.66,1.27.66,2.27,0,.66-.1,1.22-.3,1.68-.2.46-.48.8-.85,1.03-.37.23-.8.35-1.29.35-.47,0-.85-.09-1.15-.26-.3-.17-.53-.39-.69-.64h-.07l-.18.79h-.64V2.86h.89Zm1.72,3.12c-.43,0-.76.08-1.01.25-.25.17-.43.42-.54.75-.11.33-.16.76-.16,1.27v.05c0,.74.12,1.31.37,1.7.25.39.7.59,1.35.59.55,0,.96-.2,1.23-.6.27-.4.41-.97.41-1.72s-.13-1.33-.41-1.71-.68-.57-1.24-.57Z"/>
    <polyline points=".5 11.5 .5 13.5 15.5 13.5 15.5 11.5" fill="none" stroke="#000" stroke-miterlimit="10"/>
</svg>
